<?xml version="1.0" encoding="UTF-8"?>
<svg id="Layer_18" data-name="Layer 18" xmlns="http://www.w3.org/2000/svg" viewBox="0 0 130.26 161.39">
  <defs>
    <style>
      .cls-1 {
        fill: #fff;
      }
    </style>
  </defs>
  <g>
    <path class="cls-1" d="m59.15,3.38v11.96h11.96V3.38h-11.96Zm10.47,10.48h-8.97V4.89h8.97v8.97Z"/>
    <path class="cls-1" d="m57.65,1.89v14.95h14.95V1.89h-14.95Zm11.96,11.96h-8.97V4.89h8.97v8.97Z"/>
  </g>
  <g>
    <path class="cls-1" d="m114.98,59.21v11.96h11.96v-11.96h-11.96Zm10.47,10.48h-8.97v-8.97h8.97v8.97Z"/>
    <path class="cls-1" d="m113.48,57.72v14.95h14.95v-14.95h-14.95Zm11.96,11.96h-8.97v-8.97h8.97v8.97Z"/>
  </g>
  <g>
    <path class="cls-1" d="m3.32,59.21v11.96h11.96v-11.96H3.32Zm10.47,10.48H4.82v-8.97h8.97v8.97Z"/>
    <path class="cls-1" d="m1.83,57.72v14.95h14.95v-14.95H1.83Zm11.96,11.96H4.82v-8.97h8.97v8.97Z"/>
  </g>
  <path class="cls-1" d="m64.88,30.81c-9.9,0-17.94,8.05-17.94,17.94s8.05,17.94,17.94,17.94,17.94-8.06,17.94-17.94-8.06-17.94-17.94-17.94Zm0,32.9c-8.24,0-14.95-6.71-14.95-14.95s6.71-14.95,14.95-14.95,14.95,6.7,14.95,14.95-6.71,14.95-14.95,14.95Z"/>
  <path class="cls-1" d="m94.79,96.03h-2.99v-1.2c0-10.57-8.6-19.17-19.17-19.17h-15.49c-10.57,0-19.17,8.6-19.17,19.17v1.2h-2.99v-1.2c0-12.22,9.94-22.16,22.16-22.16h15.49c12.22,0,22.16,9.94,22.16,22.16v1.2Z"/>
  <g>
    <path class="cls-1" d="m72.61,10.92c24.1,3.43,43.17,22.65,46.38,46.81.07.5.13.99.18,1.49s.1,1.01.14,1.51h2.99c-.03-.5-.07-1.01-.13-1.51-.04-.5-.1-1-.17-1.49-3.24-25.82-23.65-46.36-49.39-49.83-.5-.07-1-.13-1.5-.18-.5-.06-1-.11-1.5-.14v3c.5.04,1,.09,1.5.15.5.05,1.01.12,1.5.19Z"/>
    <path class="cls-1" d="m10.6,59.21c.05-.5.11-.99.18-1.49,3.23-24.32,22.54-43.65,46.88-46.88.5-.07,1-.13,1.5-.18s1-.1,1.5-.14v-2.99c-.5.03-1,.07-1.5.13-.5.04-1,.1-1.5.16C31.67,11.1,11.03,31.74,7.77,57.72c-.07.49-.13.99-.17,1.49-.06.5-.1,1.01-.13,1.51h2.99c.04-.5.09-1.01.14-1.51Z"/>
    <path class="cls-1" d="m43.15,115.01c-17.05-7.43-29.59-23.32-32.3-42.34-.07-.5-.14-1-.19-1.51-.06-.49-.11-.99-.15-1.49h-3c.03.5.08.99.14,1.49.05.5.11,1.01.19,1.51,2.68,19.94,15.62,36.67,33.31,44.71.57-.87,1.24-1.67,2-2.37Z"/>
    <path class="cls-1" d="m119.1,71.17c-.05.51-.12,1.01-.19,1.51-2.97,20.82-17.72,37.88-37.26,44.21-.3,1.1-.57,2.23-.82,3.38,21.61-6.24,38.04-24.83,41.1-47.59.08-.5.14-1.01.19-1.51.06-.5.11-.99.14-1.49h-3c-.04.5-.09,1-.15,1.49Z"/>
  </g>
  <g>
    <rect class="cls-1" x="42.57" y="138.59" width="4.4" height="24.27" transform="translate(-104.33 100.82) rotate(-54.95)"/>
    <path class="cls-1" d="m38.97,141.05c2.54-5.32,5.06-11.7,6.09-17.66.49-2.82,2.63-5.09,5.42-5.73,10.07-2.3,20.25-10.28,25.85-15.27l-16.43,23.42c-1.96-.41-4.07.41-5.19,2.26-1.25,2.07-.76,4.8,1.13,6.31,2.22,1.77,5.44,1.29,7.04-1,1.16-1.65,1.15-3.76.15-5.37l16.43-23.42c-2.78,6.96-6.81,19.25-5.55,29.51.35,2.84-1.06,5.63-3.55,7.05-5.25,3-10.4,7.54-14.53,11.74l-16.87-11.84Z"/>
  </g>
</svg>