<?xml version="1.0" encoding="UTF-8"?>
<svg id="Layer_17" data-name="Layer 17" xmlns="http://www.w3.org/2000/svg" viewBox="0 0 130.26 171.39">
  <defs>
    <style>
      .cls-1, .cls-2 {
        fill: #fff;
      }

      .cls-2 {
        font-family: Monoton-Regular, Monoton;
        font-size: 86.47px;
      }
    </style>
  </defs>
  <text class="cls-2" transform="translate(28 98.94)"><tspan x="0" y="0">X</tspan></text>
  <path class="cls-1" d="m127.63,19.73V4.73h-15v6h-42.5v-3.5h-10v3.5H17.63v-6H2.63v15h6v42.5h-3.5v10h3.5v42.5H2.63v15h15v-6h37.2c-.28-1.03-.57-2.03-.87-3H17.63v-6h-6v-42.5h3.5v-10h-3.5V19.73h6v-6h42.5v3.5h10v-3.5h42.5v6h6v42.5h-3.5v10h3.5v42.5h-6v6h-20.78c1.22.82,2.29,1.83,3.17,3h17.61v6h15v-15h-6v-42.5h3.5v-10h-3.5V19.73h6ZM14.63,117.73v9H5.63v-9h9Zm-1.5-53.5v6h-6v-6h6Zm1.5-53.5v6H5.63V7.73h9v3Zm53.5,0v4.5h-6v-6h6v1.5Zm56.5,107v9h-9v-9h9Zm-1.5-53.5v6h-6v-6h6Zm-4.5-47.5h-3V7.73h9v9h-6Z"/>
  <g>
    <rect class="cls-1" x="79.7" y="155.66" width="24.35" height="4.41" transform="translate(-74 81.39) rotate(-35.05)"/>
    <path class="cls-1" d="m97.7,148.16c-2.55-5.33-5.08-11.74-6.11-17.71-.49-2.83-2.64-5.11-5.44-5.75-10.1-2.31-20.32-10.31-25.93-15.31l16.48,23.49c1.96-.41,4.08.41,5.2,2.27,1.25,2.08.76,4.81-1.13,6.33-2.23,1.78-5.45,1.29-7.06-1-1.16-1.65-1.15-3.77-.15-5.38l-16.48-23.49c2.79,6.99,6.84,19.31,5.57,29.6-.35,2.85,1.06,5.65,3.56,7.07,5.26,3.01,10.43,7.57,14.58,11.78l16.93-11.87Z"/>
  </g>
</svg>