<?xml version="1.0" encoding="UTF-8"?>
<svg id="Layer_21" data-name="Layer 21" xmlns="http://www.w3.org/2000/svg" viewBox="0 0 130.26 161.39">
  <defs>
    <style>
      .cls-1 {
        fill: #fff;
      }
    </style>
  </defs>
  <rect class="cls-1" x="52.54" y="151.41" width="24.35" height="4.41"/>
  <path class="cls-1" d="m66.64,95.75v28.7c1.74.75,2.97,2.48,2.97,4.49,0,2.8-2.36,5.06-5.21,4.88-2.42-.15-4.39-2.11-4.56-4.53-.15-2.17,1.11-4.05,2.96-4.84v-28.7c-1.73,7.32-5.5,19.74-12.44,27.43-1.92,2.13-2.37,5.23-1.15,7.83,2.58,5.49,4.19,12.18,5.17,18.01h20.67c.98-5.83,2.59-12.53,5.17-18.01,1.22-2.6.78-5.7-1.15-7.83-6.94-7.69-10.71-20.11-12.44-27.43Z"/>
  <path class="cls-1" d="m118.34,62.56l-19.32-19.32v-7.6h-7.6l-19.47-19.47V5.56h-13.12v10.61l-19.47,19.47h-8.34v8.34l-18.58,18.58H1.83v13.12h10.85l19.34,19.34v7.62h7.62l9.36,9.36c.5-.92.98-1.86,1.42-2.82l-8.4-8.41v-8.14h-8.14l-18.93-18.93v-9.42l18.65-18.65h7.42v-7.42l19.54-19.54h9.65l18.8,18.8v8.16h8.16l18.12,18.12v10.47l-18.4,18.4h-7.88v7.88l-9.57,9.57c.46.95.95,1.88,1.46,2.78l10.23-10.23h7.88v-7.88l19.08-19.08h10.32v-13.12h-10.09Zm-106.38,10.12h-7.12v-7.12h7.12v7.12Zm22.07,21.96h6v6h-6v-6Zm5-51h-6v-6h6v6Zm29.93-27.96h-7.12v-7.12h7.12v7.12Zm28.07,27.96h-6v-6h6v6Zm0,57h-6v-6h6v6Zm28.4-27.96h-7.12v-7.12h7.12v7.12Z"/>
  <path class="cls-1" d="m54.55,97.7c.37-1.35.69-2.6.95-3.68.15-.63.38-1.23.67-1.78-.21-1.59-.52-3.18-.96-4.72-.14-.5-1.15-1.22-1.54-1.11-1.01.29-.41,1.1-.23,1.81.3,1.17.48,2.39.61,3.59.2,1.96.41,3.92.51,5.89Z"/>
  <path class="cls-1" d="m43.76,91.24c1.45-1.45,2.89-2.89,4.67-4.67.04,3.4.07,6.42.11,9.45l1.66,1.66c1-3.64.83-7.34.26-11-.21-1.37-.14-2.32.99-3.15.54-.4.98-.95,1.54-1.52,2.29,2.29,4.57,4.57,6.85,6.85.85-.37,1.77-.58,2.73-.61-2.62-2.62-5.22-5.22-7.91-7.91.91-.91,1.78-1.82,2.7-2.67.2-.18.61-.17.92-.16,3.5.08,7.02.39,10.51.2,1.79-.1,3.11.07,4.16,1.54.25.35.61.62.94.96-.75,1.25-1.48,1.9-3.09,1.46-1.52-.42-3.2-.21-4.8-.39-1.87-.21-3.73-.56-5.61-.79-.41-.05-.85.2-1.28.3.14.42.16,1.09.43,1.22,1.12.54,2.29,1.12,3.51,1.32,1.48.24,3.02.1,4.54.14.9.02,1.8.07,3.01.13-1.65,1.65-3.17,3.17-4.68,4.68,1.1-.1,2.17.04,3.15.38,1.09-1.09,2.19-2.19,3.36-3.36.09,1.08.2,1.96.23,2.84.04,1.05-.02,2.12,0,3.17.58.79,1.02,1.7,1.26,2.72.21.88.45,1.86.74,2.91.23.07.49.09.67.06.2-.04.52-.81.39-1.06-1.27-2.55-.66-5.29-.89-7.94-.08-.97-.05-2.01-.41-2.88-.61-1.47-.06-2.28,1.31-3.03.85.85,1.84,1.66,2.57,2.66.32.44.2,1.28.13,1.93-.42,3.75-.59,7.49.21,11.22.62-.62,1.25-1.25,1.87-1.87.06-2.95.11-5.89.17-8.97,1.48,1.48,2.94,2.94,4.4,4.4.55-.55,1.11-1.11,1.66-1.66-1.44-1.44-2.89-2.89-4.61-4.61,3.29.02,6.24.03,9.18.04.55-.55,1.11-1.11,1.66-1.66-.79-.19-1.57-.53-2.36-.53-2.87,0-5.76.02-8.62.22-1.16.08-2.05.01-2.81-.97-.52-.68-1.21-1.24-1.81-1.84.72-1.26,1.45-1.73,2.9-1.34,1.62.44,3.38.35,5.07.56,1.87.23,3.74.55,5.61.77.42.05.87-.15,1.3-.24-.17-.45-.22-1.16-.53-1.29-1.32-.56-2.69-1.13-4.1-1.36-1.48-.24-3.02-.08-4.53-.14-.76-.03-1.52-.13-2.54-.23,2.18-2.18,4.15-4.15,6.34-6.34,3.16,3.16,6.28,6.28,9.41,9.41.48-.48.97-.97,1.45-1.45-2.65-2.72-5.31-5.44-7.96-8.16-.43-.44-.87-.88-1.35-1.36,2.19-2.19,4.23-4.23,6.61-6.61.06,1.72.09,3.05.17,4.38.08,1.55.1,3.12.35,4.65.14.83.62,1.63,1.1,2.35.2.3.78.35,1.19.51.12-.42.37-.85.32-1.26-.2-1.87-.5-3.74-.72-5.61-.23-1.93-.25-3.9-.7-5.78-.32-1.36.89-1.6,1.2-2.44-.48-.48-.97-.97-1.45-1.45-1.09,1.31-2.37,1.38-4,.99-1.54-.37-3.21-.12-4.81-.28-1.59-.16-3.16-.51-4.74-.71-.41-.05-.86.15-1.29.24.14.42.17,1.1.43,1.21,1.42.56,2.88,1.21,4.37,1.4,2.11.26,4.26.13,6.7.18-2.25,2.25-4.27,4.27-6.39,6.39-3.16-3.16-6.31-6.31-9.6-9.6.92-.92,1.81-1.86,2.77-2.74.19-.18.63-.21.92-.15,4.18.82,8.35.69,12.52-.04-.62-.62-1.25-1.25-1.87-1.87-3.06-.13-6.12-.27-9.15-.4,1.32-1.32,2.85-2.85,4.38-4.38-.55-.55-1.11-1.11-1.66-1.66-1.44,1.44-2.88,2.88-4.66,4.66.11-3.26.2-6.14.29-9.02-.62-.62-1.25-1.25-1.87-1.87-.16,3.64-.49,7.28-.39,10.92.04,1.43-.16,2.4-1.23,3.27-.59.49-1.1,1.08-1.71,1.69-3.18-3.18-6.24-6.24-9.34-9.34,2.11-2.11,4.16-4.16,6.52-6.52.03,2.14-.07,3.93.12,5.69.19,1.71.59,3.42,1.08,5.08.12.41.93.62,1.42.93.08-.55.26-1.11.21-1.65-.13-1.74-.35-3.47-.53-5.21-.2-1.89-.25-3.8-.63-5.65-.28-1.36.88-1.58,1.36-2.32-.55-.55-1.11-1.11-1.66-1.66-.83,1.29-1.85,1.62-3.44,1.23-1.63-.4-3.4-.16-5.1-.33-1.64-.17-3.25-.53-4.89-.73-.41-.05-.86.15-1.29.24.17.45.24,1.17.54,1.3,1.38.56,2.79,1.17,4.25,1.34,2.1.25,4.25.13,6.66.18-2.24,2.24-4.26,4.26-6.42,6.42-.95-.95-1.87-1.89-2.8-2.8-2.27-2.22-4.55-4.42-6.83-6.63-.48.48-.97.97-1.45,1.45,3.14,3.14,6.29,6.29,9.51,9.51-2.1,2.1-4.05,4.05-6.2,6.2-.06-.84-.11-1.53-.14-2.22-.11-2.05-.1-4.11-.37-6.14-.12-.92-.71-1.8-1.22-2.61-.16-.26-.82-.44-1.1-.32-.25.12-.44.71-.4,1.07.25,2.51.57,5.01.86,7.51.11.92.01,1.91.31,2.76.51,1.44.19,2.45-1.34,3.27-.74-.74-1.61-1.51-2.34-2.4-.25-.3-.19-.89-.19-1.35,0-3.51.04-7.02.01-10.54,0-.55-.33-1.09-.51-1.63-.55.55-1.11,1.11-1.66,1.66.09,3.11.18,6.22.27,9.32-.11.05-.23.11-.34.16-1.57-1.57-3.14-3.14-4.7-4.7-.55.55-1.11,1.11-1.66,1.66,1.58,1.58,3.15,3.15,4.73,4.73-.02.13-.04.26-.06.38-3.15-.11-6.3-.23-9.45-.34-.55.55-1.11,1.11-1.66,1.66,1.85.29,3.69.73,5.54.82,1.94.09,3.91-.04,5.84-.3,1.34-.18,2.36-.02,3.18,1.11.37.5.88.9,1.37,1.4-.78,1.26-1.5,1.95-3.18,1.48-1.56-.44-3.3-.22-4.94-.4-1.78-.19-3.54-.55-5.31-.76-.42-.05-.87.16-1.31.25.16.46.19,1.19.49,1.33,1.22.55,2.51,1.16,3.81,1.3,2.26.24,4.55.15,7.12.2-2.23,2.23-4.24,4.24-6.43,6.43-3.18-3.18-6.35-6.35-9.52-9.52-.48.48-.97.97-1.45,1.45,3.14,3.14,6.28,6.28,9.51,9.51-2.09,2.09-4.06,4.06-6.32,6.32-.02-1.76.08-3.26-.09-4.72-.23-1.91-.6-3.82-1.11-5.67-.12-.45-1.06-.67-1.62-.99-.02.6-.1,1.21-.03,1.8.16,1.45.42,2.89.57,4.33.22,2.08.28,4.18.58,6.24.17,1.19-.73,1.47-1.28,2.08.55.55,1.11,1.11,1.66,1.66.78-1.19,1.72-1.3,3.11-.92,1.47.41,3.1.23,4.65.4,1.83.2,3.64.51,5.47.71.42.05.87-.18,1.3-.28-.17-.45-.23-1.19-.54-1.31-1.28-.54-2.62-1.07-3.98-1.27-1.53-.22-3.12-.08-4.69-.11-.67-.02-1.33-.09-2.26-.16,2.2-2.2,4.2-4.2,6.26-6.26,3.07,3.07,6.1,6.1,9.31,9.31-.92.92-1.8,1.86-2.77,2.72-.23.2-.73.18-1.08.13-3.9-.55-7.79-.52-11.67.14.62.62,1.25,1.25,1.87,1.87,2.81.09,5.62.18,8.46.27-1.27,1.27-2.68,2.68-4.09,4.09.55.55,1.11,1.11,1.66,1.66Zm18.82-22.15c-1.48,1.48-2.91,2.91-4.26,4.26.01-2.84.03-5.73.04-8.48,1.21,1.21,2.66,2.66,4.22,4.22Zm-2.7-6.27c3.03.09,5.91.18,8.6.27-1.15,1.15-2.6,2.6-4.17,4.17-1.47-1.47-2.9-2.9-4.43-4.44Zm-.34,12.7c1.67-1.67,3.17-3.17,4.75-4.75,1.6,1.6,3.16,3.16,4.42,4.42-2.76.1-5.85.21-9.18.33Zm11.24-1.82c-1.53-1.53-3.07-3.07-4.67-4.67,1.53-1.53,3.06-3.06,4.89-4.89-.08,3.43-.15,6.47-.22,9.56Zm4.65-14.13c3.24,3.24,6.37,6.37,9.59,9.59-1.98,1.98-3.92,3.92-5.87,5.87-.24-.01-.48-.03-.72-.04.13-1.75.31-3.49.36-5.24.05-1.82-.14-3.65-1.35-5.14-.3-.37-.91-.49-1.38-.73-.08.51-.26,1.03-.22,1.53.21,2.22.5,4.43.74,6.65.12,1.11.11,2.25.33,3.34.37,1.89.43,1.88-1.38,3.16-.76-.76-1.59-1.51-2.31-2.35-.24-.28-.35-.8-.3-1.19.52-4.05.73-8.08-.15-12.11-.06-.28.07-.69.26-.9.75-.82,1.56-1.59,2.4-2.43Zm-17.27-2.82c1.86.46,3.88.27,5.81.47,1.49.15,2.97.47,4.46.66.43.05.88-.1,1.32-.16-.15-.46-.19-1.21-.48-1.33-1.38-.55-2.8-1.16-4.25-1.32-2.15-.25-4.33-.13-6.84-.18,2.26-2.26,4.24-4.24,6.28-6.28,3.11,3.11,6.16,6.16,9.34,9.34-.88.88-1.67,1.74-2.54,2.5-.27.23-.78.24-1.18.24-3.36,0-6.74-.21-10.09.02-1.59.11-2.72-.08-3.67-1.33-.35-.46-.81-.83-1.27-1.29.78-1.23,1.54-1.72,3.11-1.33Zm-14.46,12.61c2.08-2.08,4.13-4.13,6.46-6.46.03,2.17-.07,4.01.13,5.82.18,1.67.58,3.32,1.07,4.93.13.42.93.63,1.42.93.09-.55.3-1.11.25-1.65-.14-1.54-.4-3.07-.57-4.61-.23-2.12-.52-4.25-.55-6.38-.01-.75.67-1.51,1.17-2.53,1.13,1.13,1.96,1.82,2.6,2.66.3.39.35,1.05.35,1.59.01,3.75-.01,7.49-.04,11.24,0,.36-.03.81-.24,1.05-.84.94-1.76,1.8-2.72,2.75-3.16-3.16-6.22-6.22-9.34-9.34Z"/>
  <path class="cls-1" d="m53.63,100.83c-.04.06-.07.12-.11.17.01.01.03.03.04.04.02-.07.04-.14.07-.21Z"/>
</svg>