<?xml version="1.0" encoding="UTF-8"?>
<svg id="Layer_1" data-name="Layer 1" xmlns="http://www.w3.org/2000/svg" viewBox="0 0 1080 346.71">
  <defs>
    <style>
      .cls-1 {
        fill: #fff;
        stroke-width: 0px;
      }
    </style>
  </defs>
  <g>
    <g>
      <path class="cls-1" d="m428.34,167.37c-.75-.79-1.13-1.99-1.13-3.58v-80.47c0-1.68.37-2.92,1.13-3.71.75-.79,2.01-1.19,3.78-1.19h33.94c10.87,0,18.93,2.59,24.19,7.76,5.26,5.17,7.89,12.57,7.89,22.21s-2.63,16.88-7.89,22.01c-5.26,5.13-13.32,7.69-24.19,7.69h-21.88v25.72c0,1.59-.38,2.78-1.13,3.58-.75.8-2.05,1.19-3.91,1.19h-7.03c-1.77,0-3.03-.4-3.78-1.19Zm36.92-42.16c5.39,0,9.41-1.39,12.06-4.18,2.65-2.78,3.98-7,3.98-12.66s-1.33-10.01-3.98-12.79c-2.65-2.78-6.67-4.18-12.06-4.18h-21.08v33.81h21.08Z"/>
      <path class="cls-1" d="m509.61,167.37c-.75-.79-1.13-1.99-1.13-3.58v-80.47c0-1.68.37-2.92,1.13-3.71.75-.79,2.01-1.19,3.78-1.19h7.03c1.77,0,3.05.4,3.84,1.19s1.19,2.03,1.19,3.71v80.47c0,1.59-.38,2.78-1.13,3.58-.75.8-2.05,1.19-3.91,1.19h-7.03c-1.77,0-3.03-.4-3.78-1.19Z"/>
      <path class="cls-1" d="m539.04,168.04c-.4-.35-.6-.8-.6-1.33s.22-1.15.66-1.86l31.95-42.42-30.23-40.3c-.53-.71-.79-1.37-.79-1.99,0-.53.18-.95.53-1.26.35-.31.88-.46,1.59-.46h12.33c.97,0,1.68.11,2.12.33.44.22.88.64,1.33,1.26l22.54,29.83,22.54-29.83c.44-.62.88-1.04,1.33-1.26.44-.22,1.15-.33,2.12-.33h12.46c.62,0,1.1.16,1.46.46.35.31.53.73.53,1.26,0,.62-.26,1.28-.79,1.99l-30.23,40.3,31.95,42.42c.44.71.66,1.33.66,1.86s-.2.97-.6,1.33c-.4.35-.91.53-1.52.53h-12.33c-.88,0-1.55-.09-1.99-.27-.44-.18-.88-.57-1.33-1.19l-24.26-32.08-24.13,32.08c-.44.62-.88,1.02-1.33,1.19-.44.18-1.11.27-1.99.27h-12.46c-.62,0-1.13-.18-1.53-.53Z"/>
      <path class="cls-1" d="m636.08,158.22c-7.82-8.22-11.73-19.8-11.73-34.73s3.91-26.51,11.73-34.73c7.82-8.22,19.02-12.33,33.61-12.33s25.67,4.11,33.54,12.33c7.87,8.22,11.8,19.8,11.8,34.73s-3.93,26.51-11.8,34.73c-7.87,8.22-19.05,12.33-33.54,12.33s-25.79-4.11-33.61-12.33Zm54.82-8.95c4.86-5.88,7.29-14.47,7.29-25.79s-2.43-19.89-7.29-25.72c-4.86-5.83-11.93-8.75-21.21-8.75s-16.37,2.92-21.28,8.75c-4.91,5.83-7.36,14.41-7.36,25.72s2.45,19.91,7.36,25.79c4.91,5.88,12,8.82,21.28,8.82s16.35-2.94,21.21-8.82Z"/>
      <path class="cls-1" d="m729.15,167.37c-.75-.79-1.13-1.99-1.13-3.58v-80.47c0-1.68.37-2.92,1.13-3.71.75-.79,2.01-1.19,3.78-1.19h38.31c9.19,0,16.15,2.21,20.88,6.63,4.73,4.42,7.09,10.39,7.09,17.9,0,4.24-1.06,8.04-3.18,11.4-2.12,3.36-5.08,5.83-8.88,7.42,9.81,3.09,14.72,9.99,14.72,20.68,0,4.95-1.13,9.39-3.38,13.32-2.25,3.93-5.63,7.05-10.14,9.35-4.51,2.3-10.08,3.45-16.7,3.45h-38.71c-1.77,0-3.03-.4-3.78-1.19Zm39.71-51.31c4.33,0,7.67-1.1,10.01-3.31,2.34-2.21,3.51-5.3,3.51-9.28,0-4.33-1.08-7.44-3.25-9.35-2.17-1.9-5.63-2.85-10.41-2.85h-23.73v24.79h23.86Zm1.99,39.64c4.86,0,8.44-1.26,10.74-3.78,2.3-2.52,3.45-5.77,3.45-9.74,0-4.59-1.39-8.06-4.18-10.41-2.78-2.34-6.65-3.51-11.6-3.51h-24.26v27.44h25.85Z"/>
      <path class="cls-1" d="m815.98,167.37c-.75-.79-1.13-1.99-1.13-3.58v-80.47c0-1.68.37-2.92,1.13-3.71.75-.79,2.01-1.19,3.78-1.19h7.03c1.77,0,3.05.4,3.84,1.19s1.19,2.03,1.19,3.71v72.39h40.57c1.77,0,3,.38,3.71,1.13.71.75,1.06,1.97,1.06,3.65v3.58c0,1.59-.35,2.74-1.06,3.45-.71.71-1.94,1.06-3.71,1.06h-52.63c-1.77,0-3.03-.4-3.78-1.19Z"/>
      <path class="cls-1" d="m888.63,167.37c-.75-.79-1.13-1.99-1.13-3.58v-80.47c0-1.68.37-2.92,1.13-3.71.75-.79,2.01-1.19,3.78-1.19h7.03c1.77,0,3.05.4,3.84,1.19s1.19,2.03,1.19,3.71v80.47c0,1.59-.38,2.78-1.13,3.58-.75.8-2.05,1.19-3.91,1.19h-7.03c-1.77,0-3.03-.4-3.78-1.19Z"/>
      <path class="cls-1" d="m918.06,168.04c-.4-.35-.6-.8-.6-1.33s.22-1.15.66-1.86l31.95-42.42-30.23-40.3c-.53-.71-.79-1.37-.79-1.99,0-.53.18-.95.53-1.26.35-.31.88-.46,1.59-.46h12.33c.97,0,1.68.11,2.12.33.44.22.88.64,1.33,1.26l22.54,29.83,22.54-29.83c.44-.62.88-1.04,1.33-1.26.44-.22,1.15-.33,2.12-.33h12.46c.62,0,1.1.16,1.46.46.35.31.53.73.53,1.26,0,.62-.26,1.28-.79,1.99l-30.23,40.3,31.95,42.42c.44.71.66,1.33.66,1.86s-.2.97-.6,1.33c-.4.35-.91.53-1.52.53h-12.33c-.88,0-1.55-.09-1.99-.27-.44-.18-.88-.57-1.33-1.19l-24.26-32.08-24.13,32.08c-.44.62-.88,1.02-1.33,1.19-.44.18-1.11.27-1.99.27h-12.46c-.62,0-1.13-.18-1.53-.53Z"/>
    </g>
    <g>
      <path class="cls-1" d="m431.33,264.55c-3.17-.71-5.71-1.7-7.62-2.97-.49-.29-.73-.61-.73-.95,0-.15.07-.37.22-.66l1.68-2.78c.19-.34.41-.51.66-.51s.49.1.73.29c1.76,1.12,3.87,1.99,6.33,2.6,2.46.61,5.02.92,7.65.92,3.86,0,6.76-.65,8.71-1.94,1.95-1.29,2.93-3.41,2.93-6.33,0-1.85-.39-3.34-1.17-4.47-.78-1.12-1.98-2.09-3.59-2.89-1.61-.81-4.22-1.87-7.84-3.19-3.17-1.17-5.76-2.28-7.76-3.33-2-1.05-3.7-2.49-5.09-4.32-1.39-1.83-2.09-4.16-2.09-6.99,0-4.15,1.6-7.42,4.8-9.81,3.2-2.39,7.31-3.59,12.34-3.59,6.15,0,11.13,1.22,14.94,3.66.49.34.73.66.73.95,0,.2-.07.42-.22.66l-1.68,2.78c-.24.39-.46.59-.66.59-.15,0-.39-.12-.73-.37-3.12-2.1-7.25-3.15-12.38-3.15-3.27,0-5.86.68-7.76,2.05-1.9,1.37-2.86,3.47-2.86,6.3,0,1.76.34,3.15,1.03,4.17.68,1.03,1.66,1.87,2.93,2.53,1.27.66,3.32,1.53,6.15,2.6l3,1.17c3.52,1.37,6.25,2.62,8.2,3.77,1.95,1.15,3.49,2.6,4.61,4.36s1.68,4,1.68,6.74c0,4.1-1.54,7.32-4.61,9.67-3.08,2.34-7.42,3.52-13.04,3.52-3.17,0-6.35-.35-9.52-1.06Z"/>
      <path class="cls-1" d="m477.76,262.32v-42.25h-13.55c-.78,0-1.33-.15-1.65-.44-.32-.29-.48-.81-.48-1.54v-1.24c0-.73.16-1.27.48-1.61.32-.34.87-.51,1.65-.51h33.76c.78,0,1.34.17,1.68.51.34.34.51.88.51,1.61v1.24c0,.73-.17,1.25-.51,1.54-.34.29-.9.44-1.68.44h-13.55v42.25c0,.73-.17,1.28-.51,1.65-.34.37-.9.55-1.68.55h-2.2c-1.51,0-2.27-.73-2.27-2.2Z"/>
      <path class="cls-1" d="m517.09,263.38c-3.27-1.49-5.82-3.64-7.65-6.44-1.83-2.81-2.75-6.09-2.75-9.85v-30.17c0-1.46.73-2.2,2.2-2.2h2.27c.78,0,1.34.18,1.68.55.34.37.51.92.51,1.65v30.46c0,4.05,1.32,7.25,3.96,9.59,2.64,2.34,6.32,3.52,11.06,3.52s8.42-1.17,11.06-3.52c2.64-2.34,3.96-5.54,3.96-9.59v-30.46c0-.73.17-1.28.51-1.65s.9-.55,1.68-.55h2.2c1.51,0,2.27.73,2.27,2.2v30.17c0,3.76-.92,7.04-2.75,9.85-1.83,2.81-4.38,4.96-7.65,6.44-3.27,1.49-7.03,2.23-11.28,2.23s-8.01-.75-11.28-2.23Z"/>
      <path class="cls-1" d="m559.49,262.32v-45.4c0-1.46.73-2.2,2.2-2.2h13.91c8.15,0,14.41,1.97,18.78,5.89,4.37,3.93,6.55,10.27,6.55,19s-2.19,15.07-6.55,19c-4.37,3.93-10.63,5.9-18.78,5.9h-13.91c-1.46,0-2.2-.73-2.2-2.2Zm16.62-3.15c6,0,10.56-1.49,13.66-4.47,3.1-2.98,4.65-8.01,4.65-15.09s-1.55-12.11-4.65-15.09c-3.1-2.98-7.65-4.47-13.66-4.47h-9.96v39.11h9.96Z"/>
      <path class="cls-1" d="m609.28,262.32v-45.4c0-1.46.73-2.2,2.2-2.2h2.27c.78,0,1.34.18,1.68.55.34.37.51.92.51,1.65v45.4c0,.73-.17,1.28-.51,1.65-.34.37-.9.55-1.68.55h-2.27c-1.46,0-2.2-.73-2.2-2.2Z"/>
      <path class="cls-1" d="m630.74,258.77c-4.3-4.56-6.44-10.95-6.44-19.15s2.15-14.58,6.44-19.15c4.3-4.56,10.35-6.85,18.16-6.85s13.79,2.28,18.09,6.85c4.29,4.57,6.44,10.95,6.44,19.15s-2.15,14.59-6.44,19.15c-4.3,4.57-10.33,6.85-18.09,6.85s-13.87-2.28-18.16-6.85Zm31.45-3.62c3.15-3.56,4.72-8.74,4.72-15.52s-1.58-11.96-4.72-15.53c-3.15-3.56-7.58-5.35-13.29-5.35s-10.22,1.78-13.37,5.35c-3.15,3.56-4.72,8.74-4.72,15.53s1.58,11.96,4.72,15.52c3.15,3.56,7.6,5.35,13.37,5.35s10.14-1.78,13.29-5.35Z"/>
    </g>
  </g>
  <g>
    <path class="cls-1" d="m379.35,172.29c-21.65,22.09-43.11,44-64.62,65.95-4.15-4.11-8.14-8.06-12.34-12.22,17.47-17.94,34.82-35.76,52.73-54.15-3.87-3.7-7.75-7.27-11.47-11-7.66-7.67-14.99-15.69-22.92-23.07-9.25-8.61-20.56-11.64-33.98-10.53,14.89,15.28,29.24,29.99,43.8,44.93-34.76,35.8-69.35,71.42-104.09,107.19-34.91-35.89-69.54-71.49-104.44-107.37,14.38-14.72,28.7-29.37,43.4-44.42-5.17-1.28-9.88-.74-14.53.33-8.01,1.85-15.19,5.37-21.01,11.3-10.75,10.94-21.46,21.91-32.24,32.93,17.6,17.99,35.02,35.78,52.48,53.62-4.1,4.06-8.15,8.07-12.46,12.34-21.35-21.76-42.81-43.64-64.49-65.73,7.4-7.58,14.69-15.07,22.01-22.53,6.95-7.08,13.86-14.2,20.91-21.18,17.55-17.37,38.27-22.41,61.91-15.51,1.8.53,2.8.33,4.13-1.05,14.6-15.08,29.28-30.07,44.35-45.49,2.45,2.59,4.78,5.1,7.17,7.55,12.24,12.56,24.53,25.06,36.71,37.68,1.5,1.55,2.75,1.8,4.76,1.22,23.26-6.72,43.77-1.9,60.99,15.24,14.47,14.39,28.64,29.1,43.23,43.97Zm-183.29-50.27c3.11,2.95,5.64,4.99,7.76,7.39,15.51,17.58,18.82,37.94,13.05,60.09-3.48,13.35-10,25.44-16.73,37.6,8.7,8.98,17.4,17.97,26.24,27.09,9-9.26,17.66-18.17,25.86-26.6-4.48-9.49-9.06-18.42-12.97-27.62-6.74-15.86-8.65-32.16-3.25-48.9,3.72-11.54,10.66-20.78,20.36-28.37-10.03-10.29-19.89-20.41-29.22-29.98-10.48,9.87-20.7,19.51-31.09,29.3Zm-8.19,92.63c3.82-8.52,7.83-16.31,10.79-24.47,2.01-5.54,3.32-11.57,3.6-17.44.68-14.5-4.5-26.79-15.72-36.33-1.98-1.68-3.34-2-5.36.2-5.15,5.59-10.62,10.88-15.93,16.33-6.18,6.33-12.32,12.7-18.6,19.17,13.66,14.1,27.12,27.99,41.23,42.55Zm77.21-.31c13.83-14.21,27.33-28.07,40.94-42.05-12.3-12.63-24.51-25.17-36.86-37.85-11.59,7.61-17.22,18.48-18.54,31.75-1.79,17.86,6.06,32.87,14.46,48.15Z"/>
    <path class="cls-1" d="m226.49,304.34c16.82-17.23,33.4-34.23,50.28-51.53,3.83,4.35,7.59,8.61,11.51,13.06-20.08,20.62-40.89,41.98-61.9,63.55-20.96-21.48-41.7-42.74-62.51-64.07,4.16-4.16,8.14-8.14,12.44-12.44,16.7,17.11,33.39,34.23,50.17,51.42Z"/>
    <path class="cls-1" d="m176.46,92.91c-4-4.21-7.84-8.27-11.9-12.55,20.41-20.79,41.04-41.81,61.91-63.08,20.83,21.19,41.48,42.21,62.09,63.19-4.09,4.07-8.13,8.1-12.41,12.36-16.37-16.63-32.94-33.45-49.84-50.62-16.63,16.91-33.16,33.72-49.85,50.7Z"/>
  </g>
</svg>