<?xml version="1.0" encoding="UTF-8"?>
<svg id="Layer_1" data-name="Layer 1" xmlns="http://www.w3.org/2000/svg" viewBox="0 0 1080 1080">
  <defs>
    <style>
      .cls-1 {
        fill: #fff;
        stroke-width: 0px;
      }
    </style>
  </defs>
  <g>
    <g>
      <path class="cls-1" d="m65.94,861.61c-1.25-1.32-1.88-3.31-1.88-5.96v-133.97c0-2.79.62-4.86,1.88-6.18,1.25-1.32,3.34-1.99,6.29-1.99h56.5c18.1,0,31.52,4.3,40.28,12.91,8.75,8.61,13.13,20.93,13.13,36.97s-4.38,28.11-13.13,36.64c-8.76,8.54-22.18,12.8-40.28,12.8h-36.42v42.82c0,2.65-.63,4.63-1.88,5.96-1.25,1.32-3.42,1.99-6.51,1.99h-11.7c-2.95,0-5.04-.66-6.29-1.99Zm61.47-70.18c8.97,0,15.67-2.32,20.08-6.95s6.62-11.66,6.62-21.08-2.21-16.66-6.62-21.3-11.11-6.95-20.08-6.95h-35.09v56.28h35.09Z"/>
      <path class="cls-1" d="m201.23,861.61c-1.25-1.32-1.88-3.31-1.88-5.96v-133.97c0-2.79.62-4.86,1.88-6.18,1.25-1.32,3.34-1.99,6.29-1.99h11.7c2.94,0,5.08.66,6.4,1.99s1.99,3.39,1.99,6.18v133.97c0,2.65-.63,4.63-1.88,5.96-1.25,1.32-3.42,1.99-6.51,1.99h-11.7c-2.95,0-5.04-.66-6.29-1.99Z"/>
      <path class="cls-1" d="m250.22,862.71c-.66-.59-.99-1.32-.99-2.21s.37-1.91,1.1-3.09l53.19-70.62-50.32-67.09c-.88-1.18-1.32-2.28-1.32-3.31,0-.88.29-1.58.88-2.1.59-.51,1.47-.77,2.65-.77h20.53c1.62,0,2.79.19,3.53.55.73.37,1.47,1.07,2.21,2.1l37.52,49.66,37.52-49.66c.73-1.03,1.47-1.73,2.21-2.1.73-.37,1.91-.55,3.53-.55h20.75c1.03,0,1.84.26,2.43.77.59.52.88,1.21.88,2.1,0,1.03-.44,2.13-1.32,3.31l-50.32,67.09,53.19,70.62c.73,1.18,1.1,2.21,1.1,3.09s-.33,1.62-.99,2.21c-.66.59-1.51.88-2.54.88h-20.53c-1.47,0-2.58-.15-3.31-.44-.74-.29-1.47-.96-2.21-1.99l-40.39-53.41-40.17,53.41c-.74,1.03-1.47,1.69-2.21,1.99-.74.3-1.84.44-3.31.44h-20.75c-1.03,0-1.88-.29-2.54-.88Z"/>
      <path class="cls-1" d="m411.77,846.38c-13.02-13.68-19.53-32.96-19.53-57.82s6.51-44.14,19.53-57.82c13.02-13.68,31.67-20.53,55.95-20.53s42.74,6.84,55.84,20.53c13.09,13.68,19.64,32.96,19.64,57.82s-6.55,44.14-19.64,57.82c-13.1,13.68-31.71,20.53-55.84,20.53s-42.93-6.84-55.95-20.53Zm91.26-14.9c8.09-9.78,12.14-24.09,12.14-42.93s-4.05-33.11-12.14-42.82c-8.09-9.71-19.86-14.57-35.31-14.57s-27.26,4.86-35.42,14.57-12.25,23.98-12.25,42.82,4.08,33.14,12.25,42.93c8.17,9.79,19.97,14.68,35.42,14.68s27.22-4.89,35.31-14.68Z"/>
      <path class="cls-1" d="m566.71,861.61c-1.25-1.32-1.88-3.31-1.88-5.96v-133.97c0-2.79.62-4.86,1.88-6.18,1.25-1.32,3.34-1.99,6.29-1.99h63.78c15.3,0,26.89,3.68,34.76,11.04,7.87,7.36,11.81,17.29,11.81,29.79,0,7.06-1.77,13.39-5.3,18.98-3.53,5.59-8.46,9.71-14.79,12.36,16.33,5.15,24.5,16.63,24.5,34.43,0,8.24-1.88,15.64-5.63,22.18-3.75,6.55-9.38,11.74-16.88,15.56-7.5,3.83-16.77,5.74-27.81,5.74h-64.44c-2.95,0-5.04-.66-6.29-1.99Zm66.1-85.41c7.21,0,12.76-1.84,16.66-5.52,3.9-3.68,5.85-8.83,5.85-15.45,0-7.21-1.8-12.39-5.41-15.56-3.61-3.16-9.38-4.75-17.33-4.75h-39.51v41.27h39.73Zm3.31,65.99c8.09,0,14.05-2.1,17.88-6.29,3.82-4.19,5.74-9.6,5.74-16.22,0-7.65-2.32-13.42-6.95-17.33-4.63-3.9-11.07-5.85-19.31-5.85h-40.39v45.69h43.04Z"/>
      <path class="cls-1" d="m711.27,861.61c-1.25-1.32-1.88-3.31-1.88-5.96v-133.97c0-2.79.62-4.86,1.88-6.18,1.25-1.32,3.34-1.99,6.29-1.99h11.7c2.94,0,5.08.66,6.4,1.99s1.99,3.39,1.99,6.18v120.5h67.53c2.94,0,5,.63,6.18,1.88,1.18,1.25,1.77,3.28,1.77,6.07v5.96c0,2.65-.59,4.56-1.77,5.74-1.18,1.18-3.24,1.77-6.18,1.77h-87.62c-2.95,0-5.04-.66-6.29-1.99Z"/>
      <path class="cls-1" d="m832.21,861.61c-1.25-1.32-1.88-3.31-1.88-5.96v-133.97c0-2.79.62-4.86,1.88-6.18,1.25-1.32,3.34-1.99,6.29-1.99h11.7c2.94,0,5.08.66,6.4,1.99s1.99,3.39,1.99,6.18v133.97c0,2.65-.63,4.63-1.88,5.96-1.25,1.32-3.42,1.99-6.51,1.99h-11.7c-2.95,0-5.04-.66-6.29-1.99Z"/>
      <path class="cls-1" d="m881.2,862.71c-.66-.59-.99-1.32-.99-2.21s.37-1.91,1.1-3.09l53.19-70.62-50.32-67.09c-.88-1.18-1.32-2.28-1.32-3.31,0-.88.29-1.58.88-2.1.59-.51,1.47-.77,2.65-.77h20.53c1.62,0,2.79.19,3.53.55.73.37,1.47,1.07,2.21,2.1l37.52,49.66,37.52-49.66c.73-1.03,1.47-1.73,2.21-2.1.73-.37,1.91-.55,3.53-.55h20.75c1.03,0,1.84.26,2.43.77.59.52.88,1.21.88,2.1,0,1.03-.44,2.13-1.32,3.31l-50.32,67.09,53.19,70.62c.73,1.18,1.1,2.21,1.1,3.09s-.33,1.62-.99,2.21c-.66.59-1.51.88-2.54.88h-20.53c-1.47,0-2.58-.15-3.31-.44-.74-.29-1.47-.96-2.21-1.99l-40.39-53.41-40.17,53.41c-.74,1.03-1.47,1.69-2.21,1.99-.74.3-1.84.44-3.31.44h-20.75c-1.03,0-1.88-.29-2.54-.88Z"/>
    </g>
    <g>
      <path class="cls-1" d="m344.43,1013.78c-5.31-1.18-9.56-2.84-12.75-4.97-.82-.49-1.23-1.02-1.23-1.59,0-.25.12-.61.37-1.1l2.82-4.66c.33-.57.69-.86,1.1-.86s.82.17,1.23.49c2.94,1.88,6.48,3.33,10.61,4.35,4.13,1.02,8.4,1.53,12.81,1.53,6.46,0,11.32-1.08,14.59-3.25,3.27-2.17,4.9-5.7,4.9-10.61,0-3.11-.66-5.6-1.96-7.48-1.31-1.88-3.31-3.49-6.01-4.84-2.7-1.35-7.07-3.13-13.12-5.33-5.31-1.96-9.65-3.82-13-5.58-3.35-1.76-6.19-4.17-8.52-7.23-2.33-3.07-3.49-6.97-3.49-11.71,0-6.95,2.68-12.42,8.03-16.43,5.35-4,12.24-6.01,20.66-6.01,10.3,0,18.64,2.04,25.01,6.13.82.57,1.23,1.1,1.23,1.59,0,.33-.12.7-.37,1.1l-2.82,4.66c-.41.66-.78.98-1.1.98-.25,0-.66-.2-1.23-.61-5.23-3.51-12.14-5.27-20.72-5.27-5.48,0-9.81,1.15-13,3.43-3.19,2.29-4.78,5.8-4.78,10.54,0,2.94.57,5.27,1.72,6.99,1.14,1.72,2.78,3.13,4.9,4.23,2.12,1.1,5.56,2.56,10.3,4.35l5.03,1.96c5.89,2.29,10.46,4.39,13.73,6.31,3.27,1.92,5.84,4.35,7.72,7.3,1.88,2.94,2.82,6.7,2.82,11.28,0,6.87-2.57,12.26-7.72,16.18-5.15,3.92-12.43,5.89-21.83,5.89-5.31,0-10.63-.59-15.94-1.78Z"/>
      <path class="cls-1" d="m422.17,1010.04v-70.75h-22.68c-1.31,0-2.23-.25-2.76-.74-.53-.49-.8-1.35-.8-2.58v-2.08c0-1.23.26-2.12.8-2.7.53-.57,1.45-.86,2.76-.86h56.52c1.31,0,2.25.29,2.82.86.57.57.86,1.47.86,2.7v2.08c0,1.23-.29,2.08-.86,2.58-.57.49-1.51.74-2.82.74h-22.68v70.75c0,1.23-.29,2.15-.86,2.76-.57.61-1.51.92-2.82.92h-3.68c-2.53,0-3.8-1.23-3.8-3.68Z"/>
      <path class="cls-1" d="m488.01,1011.81c-5.48-2.49-9.75-6.09-12.81-10.79-3.07-4.7-4.6-10.2-4.6-16.49v-50.52c0-2.45,1.23-3.68,3.68-3.68h3.8c1.31,0,2.25.31,2.82.92.57.61.86,1.53.86,2.76v51.01c0,6.79,2.21,12.14,6.62,16.06,4.41,3.92,10.58,5.89,18.51,5.89s14.1-1.96,18.51-5.89,6.62-9.28,6.62-16.06v-51.01c0-1.23.29-2.15.86-2.76.57-.61,1.51-.92,2.82-.92h3.68c2.53,0,3.8,1.23,3.8,3.68v50.52c0,6.3-1.53,11.79-4.6,16.49-3.07,4.7-7.34,8.3-12.81,10.79-5.48,2.49-11.77,3.74-18.88,3.74s-13.41-1.25-18.88-3.74Z"/>
      <path class="cls-1" d="m559,1010.04v-76.02c0-2.45,1.23-3.68,3.68-3.68h23.3c13.65,0,24.13,3.29,31.45,9.87,7.31,6.58,10.97,17.19,10.97,31.82s-3.66,25.24-10.97,31.82c-7.32,6.58-17.8,9.87-31.45,9.87h-23.3c-2.45,0-3.68-1.23-3.68-3.68Zm27.83-5.27c10.05,0,17.68-2.49,22.87-7.48,5.19-4.99,7.79-13.41,7.79-25.26s-2.6-20.27-7.79-25.26c-5.19-4.98-12.81-7.48-22.87-7.48h-16.68v65.48h16.68Z"/>
      <path class="cls-1" d="m642.38,1010.04v-76.02c0-2.45,1.23-3.68,3.68-3.68h3.8c1.31,0,2.25.31,2.82.92.57.61.86,1.53.86,2.76v76.02c0,1.23-.29,2.15-.86,2.76-.57.61-1.51.92-2.82.92h-3.8c-2.45,0-3.68-1.23-3.68-3.68Z"/>
      <path class="cls-1" d="m678.3,1004.09c-7.19-7.64-10.79-18.33-10.79-32.06s3.6-24.42,10.79-32.06c7.19-7.64,17.33-11.46,30.41-11.46s23.09,3.82,30.29,11.46c7.19,7.64,10.79,18.33,10.79,32.06s-3.6,24.42-10.79,32.06c-7.19,7.64-17.29,11.46-30.29,11.46s-23.22-3.82-30.41-11.46Zm52.66-6.07c5.27-5.97,7.91-14.63,7.91-25.99s-2.64-20.03-7.91-25.99c-5.27-5.97-12.69-8.95-22.25-8.95s-17.1,2.99-22.38,8.95c-5.27,5.97-7.91,14.63-7.91,25.99s2.64,20.03,7.91,25.99c5.27,5.97,12.73,8.95,22.38,8.95s16.98-2.98,22.25-8.95Z"/>
    </g>
  </g>
  <g>
    <path class="cls-1" d="m842.05,326.52c-42.71,43.59-85.06,86.81-127.51,130.13-8.19-8.11-16.06-15.91-24.34-24.11,34.47-35.39,68.71-70.55,104.04-106.84-7.63-7.3-15.28-14.35-22.63-21.7-15.12-15.13-29.57-30.96-45.21-45.53-18.25-16.99-40.56-22.96-67.04-20.78,29.38,30.14,57.69,59.18,86.43,88.65-68.59,70.64-136.83,140.91-205.37,211.49-68.88-70.81-137.21-141.05-206.06-211.84,28.38-29.04,56.62-57.95,85.63-87.64-10.19-2.52-19.49-1.46-28.67.65-15.81,3.64-29.96,10.59-41.46,22.29-21.21,21.58-42.34,43.23-63.61,64.97,34.73,35.49,69.1,70.6,103.55,105.79-8.1,8.02-16.09,15.93-24.59,24.34-42.12-42.93-84.47-86.1-127.24-129.69,14.6-14.95,28.99-29.74,43.44-44.46,13.71-13.97,27.35-28.02,41.26-41.78,34.64-34.27,75.51-44.22,122.14-30.6,3.56,1.04,5.52.64,8.14-2.06,28.8-29.75,57.78-59.32,87.5-89.76,4.83,5.1,9.43,10.07,14.14,14.9,24.16,24.77,48.41,49.45,72.44,74.34,2.95,3.06,5.43,3.55,9.39,2.41,45.89-13.25,86.36-3.74,120.34,30.06,28.55,28.4,56.5,57.41,85.3,86.75Zm-361.64-99.18c6.14,5.81,11.12,9.85,15.3,14.59,30.61,34.69,37.13,74.86,25.75,118.57-6.86,26.34-19.74,50.2-33.02,74.18,17.16,17.72,34.33,35.45,51.77,53.46,17.77-18.27,34.85-35.85,51.03-52.48-8.85-18.73-17.87-36.34-25.59-54.5-13.29-31.28-17.06-63.45-6.41-96.49,7.35-22.78,21.04-41.01,40.17-55.97-19.79-20.3-39.24-40.26-57.65-59.15-20.67,19.48-40.84,38.49-61.35,57.81Zm-16.16,182.76c7.54-16.81,15.45-32.18,21.29-48.29,3.96-10.92,6.55-22.83,7.09-34.42,1.33-28.6-8.88-52.87-31.02-71.69-3.9-3.31-6.59-3.94-10.58.4-10.16,11.03-20.96,21.47-31.43,32.22-12.19,12.49-24.31,25.05-36.7,37.83,26.96,27.82,53.51,55.22,81.35,83.95Zm152.34-.61c27.29-28.03,53.93-55.38,80.78-82.97-24.27-24.93-48.36-49.66-72.72-74.68-22.87,15.02-33.97,36.46-36.59,62.65-3.52,35.24,11.96,64.86,28.53,94.99Z"/>
    <path class="cls-1" d="m540.44,587.05c33.18-34,65.91-67.54,99.21-101.67,7.56,8.57,14.97,16.99,22.71,25.77-39.62,40.68-80.67,82.83-122.13,125.39-41.35-42.38-82.28-84.34-123.33-126.41,8.21-8.21,16.05-16.06,24.54-24.55,32.94,33.76,65.89,67.53,98.99,101.46Z"/>
    <path class="cls-1" d="m441.73,169.89c-7.88-8.31-15.48-16.32-23.48-24.76,40.26-41.02,80.98-82.5,122.15-124.46,41.09,41.81,81.85,83.29,122.51,124.67-8.07,8.04-16.04,15.98-24.48,24.39-32.31-32.81-64.99-66.01-98.34-99.88-32.82,33.37-65.42,66.54-98.35,100.03Z"/>
  </g>
</svg>