<?xml version="1.0" encoding="UTF-8"?>
<svg id="BEHANCE" xmlns="http://www.w3.org/2000/svg" xmlns:xlink="http://www.w3.org/1999/xlink" viewBox="0 0 1080 1080">
  <defs>
    <style>
      .cls-1 {
        fill: url(#linear-gradient);
      }
    </style>
    <linearGradient id="linear-gradient" x1="274.18" y1="805.45" x2="805.82" y2="273.82" gradientUnits="userSpaceOnUse">
      <stop offset="0" stop-color="#fff3b0"/>
      <stop offset="1" stop-color="#e19f3c"/>
    </linearGradient>
  </defs>
  <path class="cls-1" d="m710.15,520.95c7.13,7.91,12.34,19.17,13.76,34.4h-97.12c.27-4.24,1.19-9.03,2.71-14.32,1.54-5.43,4.15-10.51,8.01-15.32,3.87-4.74,8.93-8.74,15.12-11.98,6.33-3.27,14.22-4.87,23.76-4.87,14.66,0,26.66,4.25,33.76,12.09Zm-281.18-12.58c11.7,0,21.4-2.77,29.08-8.41,7.6-5.56,11.27-14.72,11.27-27.31,0-6.98-1.21-12.75-3.67-17.23-2.55-4.48-5.94-7.98-10.19-10.44-4.23-2.55-9.01-4.31-14.54-5.27-5.45-1.06-11.15-1.48-17-1.48h-61.84v70.14h66.89Zm39.43,54.97c-8.69-6.58-20.25-9.85-34.47-9.85h-71.86v82.66h70.55c6.5,0,12.69-.58,18.52-1.88,5.91-1.28,11.15-3.34,15.58-6.36,4.41-2.91,8.09-6.91,10.74-11.97,2.67-5.04,3.95-11.57,3.95-19.46,0-15.47-4.37-26.46-13.02-33.13Zm603.23-23.71l-531.63,531.63L8.37,539.63,540,8l531.63,531.63Zm-457.07-102.77h121.67v-29.62h-121.67v29.62Zm-67.21,163.26c0-18.78-4.47-34.79-13.58-48.18-9.07-13.3-22.77-22.64-41.21-27.95,13.55-6.42,23.7-14.68,30.61-24.75,6.87-10.1,10.29-22.72,10.29-37.83,0-13.96-2.3-25.78-6.86-35.22-4.69-9.58-11.24-17.18-19.6-22.89-8.5-5.72-18.54-9.89-30.32-12.38-11.84-2.58-24.8-3.81-39.16-3.81h0s-141.52,0-141.52,0v300.17h145.47c13.47,0,26.6-1.7,39.25-5.05,12.8-3.36,24.2-8.54,34.14-15.57,9.86-6.98,17.87-16.02,23.75-27.18,5.83-11.03,8.74-24.13,8.74-39.35Zm79.43-7.15h156.83c1.12-16.86-.25-32.96-4.16-48.39-3.94-15.44-10.26-29.21-19.11-41.25-8.86-12.06-20.14-21.69-33.89-28.81-13.81-7.21-29.9-10.74-48.29-10.74-16.66,0-31.7,2.96-45.34,8.84-13.63,5.91-25.33,14-35.21,24.25-9.85,10.19-17.36,22.34-22.77,36.42-5.31,14.03-8.03,29.21-8.03,45.46s2.61,32.32,7.8,46.33c5.24,14.08,12.6,26.07,22.07,36.21,9.73,10.11,21.28,17.85,35.1,23.38,13.84,5.45,29.25,8.22,46.37,8.22,24.57,0,45.64-5.63,62.93-16.91,17.5-11.25,30.31-29.93,38.76-56.09h-52.58c-2.03,6.72-7.3,13.2-15.95,19.27-8.73,6.08-19.13,9.11-31.16,9.11-16.75,0-29.67-4.39-38.63-13.12-8.96-8.73-14.76-25-14.76-42.18Z"/>
</svg>