<?xml version="1.0" encoding="UTF-8"?>
<svg id="DRIBBBLE" xmlns="http://www.w3.org/2000/svg" xmlns:xlink="http://www.w3.org/1999/xlink" viewBox="0 0 1080 1080">
  <defs>
    <style>
      .cls-1 {
        fill: url(#linear-gradient);
      }
    </style>
    <linearGradient id="linear-gradient" x1="274.18" y1="805.45" x2="805.82" y2="273.82" gradientUnits="userSpaceOnUse">
      <stop offset="0" stop-color="#fff3b0"/>
      <stop offset="1" stop-color="#e19f3c"/>
    </linearGradient>
  </defs>
  <path class="cls-1" d="m384.94,679.16s.08.06.08.1c-33.17-36.93-53.38-85.73-53.38-139.27,0-2.22.1-4.39.18-6.58,3.67.08,106.64,2.42,213.92-29.69,5.97,11.69,11.69,23.56,16.91,35.42-2.75.77-5.5,1.6-8.21,2.49-112.45,36.34-169.49,137.53-169.49,137.53Zm292.7-295.55c-36.72-32.33-84.86-51.99-137.62-51.99-16.93,0-33.35,2.06-49.1,5.88,3.13,4.13,42.26,56.11,77.89,121.56,78.65-29.48,108.32-74.65,108.84-75.46Zm-149.15,87.98c-36.07-64.1-74.61-116.34-77.38-120.06-58.11,27.45-101.47,80.97-115.01,145.51,5.51.1,92.34,1.14,192.39-25.45Zm-38.39-133.92c-.21.08-.44.12-.65.18.39-.08.61-.14.61-.14,0,0,.04-.02.04-.04Zm125.8,226.32c27.33,75.1,38.44,136.26,40.56,148.84,46.79-31.6,80.02-81.69,89.3-139.74-4.29-1.41-62.6-19.86-129.85-9.1Zm455.74-24.36l-531.63,531.63L8.37,539.63,540,8l531.63,531.63Zm-292.6,49.51c3.3-16.06,4.95-32.6,4.95-49.15.01-16.53-1.65-33.08-4.95-49.11-3.2-15.67-8-31.11-14.22-45.86-6.11-14.48-13.69-28.42-22.49-41.45-8.74-12.92-18.75-25.06-29.79-36.09-11.03-11.04-23.18-21.07-36.09-29.79-13.03-8.83-26.99-16.38-41.45-22.51-14.75-6.21-30.17-11.03-45.86-14.2-16.06-3.3-32.6-4.97-49.12-4.97s-33.07,1.68-49.14,4.97c-15.67,3.18-31.11,8-45.85,14.2-14.46,6.13-28.42,13.69-41.47,22.51-12.92,8.72-25.06,18.73-36.09,29.79-11.04,11.03-21.04,23.18-29.77,36.09-8.81,13.03-16.38,26.97-22.49,41.45-6.25,14.75-11.03,30.18-14.24,45.86-3.29,16.04-4.95,32.58-4.95,49.11s1.67,33.11,4.95,49.15c3.21,15.67,8,31.11,14.23,45.85,6.11,14.46,13.69,28.44,22.49,41.47,8.73,12.92,18.73,25.04,29.77,36.09,11.03,11.03,23.18,21.03,36.09,29.77,13.05,8.81,27.01,16.38,41.47,22.49,14.73,6.25,30.17,11.01,45.85,14.22,16.08,3.32,32.6,4.97,49.14,4.97s33.07-1.66,49.12-4.97c15.69-3.22,31.11-7.99,45.86-14.22,14.46-6.11,28.42-13.69,41.45-22.49,12.92-8.74,25.06-18.73,36.09-29.77,11.03-11.04,21.05-23.18,29.79-36.09,8.81-13.03,16.38-27.01,22.49-41.47,6.23-14.73,11.03-30.17,14.22-45.85Zm-203.57-15.04c-123.57,43.05-163.51,130.17-163.51,130.17,0,0-1.93-1.42-4.67-3.64,36.05,29.83,82.3,47.75,132.73,47.75,28.86,0,56.35-5.87,81.36-16.51-3.09-18.21-15.19-82.02-44.52-158.21-.46.14-.93.27-1.39.44Zm9.37-83.99c4.86,9.92,9.52,20.03,13.86,30.22,1.54,3.6,3.03,7.2,4.49,10.76,71.6-9,142.11,6.18,145.12,6.83-.47-49.46-18.15-94.8-47.38-130.28-.39.57-33.8,48.89-116.1,82.47Z"/>
</svg>