<?xml version="1.0" encoding="UTF-8"?>
<svg id="Layer_5" data-name="Layer 5" xmlns="http://www.w3.org/2000/svg" xmlns:xlink="http://www.w3.org/1999/xlink" viewBox="0 0 1080 1080">
  <defs>
    <style>
      .cls-1 {
        fill: url(#linear-gradient);
      }
    </style>
    <linearGradient id="linear-gradient" x1="274.18" y1="805.45" x2="805.82" y2="273.82" gradientUnits="userSpaceOnUse">
      <stop offset="0" stop-color="#fff3b0"/>
      <stop offset="1" stop-color="#e19f3c"/>
    </linearGradient>
  </defs>
  <path class="cls-1" d="m642.32,341.26h-202.68c-29.52,0-55.1,8.85-71.82,25.58-17.71,17.71-26.56,42.31-26.56,71.82v201.69c0,30.5,8.85,55.1,26.56,72.81,17.71,16.73,42.31,25.58,71.82,25.58h200.71c29.52,0,54.11-8.85,71.82-25.58,17.71-16.73,28.53-41.32,28.53-71.82v-202.68c0-28.53-9.84-53.13-26.56-70.84-17.71-17.71-42.31-26.56-71.82-26.56Zm-102.32,323.69c-69.85,0-125.94-56.08-125.94-125.94s57.06-125.94,125.94-125.94,125.94,57.06,125.94,125.94-56.08,125.94-125.94,125.94Zm130.85-226.29c-15.76,0-28.53-12.77-28.53-28.53s12.77-28.53,28.53-28.53,28.53,12.77,28.53,28.53-12.77,28.53-28.53,28.53ZM540,8L8.37,539.63l531.63,531.63,531.63-531.63L540,8Zm203.66,737.63c-25.58,24.6-61,38.37-103.31,38.37h-200.71c-40.34,0-75.76-12.79-102.32-38.37-27.55-26.56-41.32-62.97-41.32-105.27v-201.69c0-85.6,57.06-142.66,142.66-142.66h202.68c41.32,0,77.73,13.77,103.31,40.34,25.58,25.58,39.35,61,39.35,102.32v202.68c0,42.31-13.77,78.71-40.34,104.29Zm-122.98-206.61c0,44.27-36.4,80.68-80.68,80.68s-80.68-36.4-80.68-80.68,36.4-80.68,80.68-80.68,80.68,36.4,80.68,80.68Z"/>
</svg>