<?xml version="1.0" encoding="UTF-8"?>
<svg id="Layer_6" data-name="Layer 6" xmlns="http://www.w3.org/2000/svg" xmlns:xlink="http://www.w3.org/1999/xlink" viewBox="0 0 1080 1080">
  <defs>
    <style>
      .cls-1 {
        fill: url(#linear-gradient);
      }
    </style>
    <linearGradient id="linear-gradient" x1="274.18" y1="805.45" x2="805.82" y2="273.82" gradientUnits="userSpaceOnUse">
      <stop offset="0" stop-color="#fff3b0"/>
      <stop offset="1" stop-color="#e19f3c"/>
    </linearGradient>
  </defs>
  <path class="cls-1" d="m540,8L8.37,539.63l531.63,531.63,531.63-531.63L540,8Zm37.65,640.67c-30.27,0-58.74-16.33-68.48-34.92,0,0-16.27,64.58-19.71,77.04-12.13,44.05-47.85,88.12-50.6,91.74-1.94,2.51-6.21,1.71-6.67-1.63-.77-5.61-9.87-61.17.83-106.5,5.38-22.76,36.05-152.74,36.05-152.74,0,0-8.94-17.9-8.94-44.36,0-41.53,24.08-72.55,54.06-72.55,25.48,0,37.8,19.13,37.8,42.07,0,25.65-16.32,63.96-24.74,99.48-7.02,29.75,14.92,53.99,44.25,53.99,53.09,0,88.86-68.22,88.86-149.05,0-61.41-41.36-107.41-116.63-107.41-85.01,0-138.01,63.41-138.01,134.25,0,24.43,7.22,41.66,18.51,54.96,5.19,6.15,5.91,8.6,4.04,15.63-1.36,5.19-4.43,17.6-5.72,22.5-1.86,7.11-7.62,9.66-14.04,7.01-39.14-15.97-57.39-58.85-57.39-107.06,0-79.64,67.16-175.11,200.33-175.11,107.02,0,177.45,77.43,177.44,160.58,0,109.95-61.14,192.08-151.23,192.08Z"/>
</svg>