<?xml version="1.0" encoding="UTF-8"?>
<svg id="Layer_1" data-name="Layer 1" xmlns="http://www.w3.org/2000/svg" xmlns:xlink="http://www.w3.org/1999/xlink" viewBox="0 0 1080 1080">
  <defs>
    <style>
      .cls-1 {
        font-family: Mitr-Light, Mitr;
        font-size: 105px;
        font-weight: 300;
      }

      .cls-1, .cls-2 {
        fill: #fff3b0;
      }

      .cls-2 {
        font-family: Mitr-Regular, Mitr;
        font-size: 189px;
      }

      .cls-3 {
        letter-spacing: 0em;
      }

      .cls-4 {
        letter-spacing: -.02em;
      }

      .cls-5 {
        letter-spacing: -.06em;
      }

      .cls-6 {
        fill: url(#linear-gradient);
      }
    </style>
    <linearGradient id="linear-gradient" x1="408.38" y1="490.86" x2="672.15" y2="227.09" gradientUnits="userSpaceOnUse">
      <stop offset="0" stop-color="#fff3b0"/>
      <stop offset="1" stop-color="#e19f3c"/>
    </linearGradient>
  </defs>
  <g>
    <text class="cls-2" transform="translate(121.27 817.11)"><tspan x="0" y="0">PI</tspan><tspan class="cls-5" x="162.35" y="0">X</tspan><tspan class="cls-3" x="284.82" y="0">OBLIX</tspan></text>
    <text class="cls-1" transform="translate(355.41 945.67)"><tspan class="cls-4" x="0" y="0">S</tspan><tspan x="58.38" y="0">TUDIO</tspan></text>
  </g>
  <path class="cls-6" d="m798.66,357.19c-36.57,37.33-72.84,74.34-109.19,111.44-7.01-6.94-13.75-13.62-20.84-20.64,29.52-30.31,58.84-60.42,89.1-91.49-6.53-6.25-13.09-12.29-19.38-18.59-12.94-12.96-25.32-26.52-38.72-38.99-15.63-14.55-34.73-19.66-57.41-17.8,25.16,25.81,49.41,50.68,74.01,75.91-58.74,60.49-117.17,120.67-175.87,181.11-58.98-60.64-117.5-120.79-176.46-181.41,24.3-24.87,48.49-49.62,73.33-75.05-8.73-2.16-16.69-1.25-24.56.56-13.54,3.12-25.66,9.07-35.5,19.09-18.16,18.48-36.26,37.02-54.47,55.64,29.75,30.39,59.17,60.46,88.67,90.6-6.93,6.86-13.78,13.64-21.06,20.85-36.07-36.76-72.34-73.73-108.97-111.06,12.51-12.81,24.82-25.47,37.2-38.07,11.74-11.96,23.42-23.99,35.34-35.78,29.66-29.35,64.66-37.87,104.6-26.2,3.05.89,4.73.55,6.97-1.77,24.66-25.47,49.48-50.8,74.93-76.87,4.14,4.37,8.07,8.62,12.11,12.76,20.69,21.21,41.45,42.35,62.03,63.66,2.53,2.62,4.65,3.04,8.04,2.06,39.3-11.35,73.95-3.21,103.06,25.74,24.45,24.32,48.38,49.16,73.05,74.29Zm-309.69-84.93c5.26,4.98,9.53,8.43,13.11,12.49,26.21,29.71,31.8,64.11,22.05,101.54-5.87,22.56-16.9,42.99-28.28,63.52,14.69,15.17,29.4,30.36,44.33,45.78,15.21-15.65,29.85-30.7,43.7-44.94-7.58-16.04-15.31-31.12-21.91-46.67-11.38-26.79-14.61-54.34-5.49-82.63,6.29-19.51,18.02-35.12,34.4-47.93-16.94-17.38-33.6-34.48-49.37-50.66-17.7,16.68-34.98,32.96-52.54,49.51Zm-13.84,156.51c6.46-14.4,13.23-27.56,18.23-41.35,3.39-9.36,5.61-19.55,6.08-29.48,1.14-24.49-7.6-45.27-26.57-61.39-3.34-2.84-5.64-3.37-9.06.34-8.7,9.45-17.95,18.39-26.92,27.59-10.44,10.7-20.82,21.46-31.43,32.4,23.09,23.82,45.82,47.29,69.67,71.89Zm130.45-.52c23.37-24,46.18-47.43,69.18-71.05-20.79-21.35-41.41-42.53-62.28-63.95-19.58,12.86-29.09,31.22-31.33,53.65-3.02,30.18,10.24,55.54,24.43,81.35Zm-149.98,65.16c-7.27,7.28-13.99,13.99-21.02,21.03,35.15,36.03,70.21,71.96,105.62,108.25,35.5-36.45,70.66-72.55,104.59-107.38-6.63-7.52-12.98-14.73-19.45-22.07-28.52,29.23-56.55,57.95-84.96,87.07-28.35-29.06-56.56-57.98-84.77-86.89Zm84.46-356.01c28.56,29.01,56.55,57.43,84.22,85.53,7.23-7.2,14.06-14.01,20.97-20.89-34.83-35.44-69.73-70.96-104.92-106.76-35.26,35.93-70.13,71.45-104.61,106.58,6.86,7.23,13.36,14.08,20.11,21.2,28.2-28.68,56.12-57.08,84.23-85.66Z"/>
</svg>